<?xml version="1.0" encoding="utf-8"?>
<!-- Generator: Adobe Illustrator 19.1.0, SVG Export Plug-In . SVG Version: 6.00 Build 0)  -->
<!DOCTYPE svg PUBLIC "-//W3C//DTD SVG 1.1//EN" "http://www.w3.org/Graphics/SVG/1.1/DTD/svg11.dtd">
<svg version="1.1" id="Layer_1" xmlns="http://www.w3.org/2000/svg" xmlns:xlink="http://www.w3.org/1999/xlink" x="0px" y="0px"
	 viewBox="0 0 100 100" style="enable-background:new 0 0 100 100;" xml:space="preserve">
<style type="text/css">
	.st0{fill:#1F75D0;}
</style>
<g>
	<path class="st0" d="M50,11c21.5,0,39,17.5,39,39S71.5,89,50,89S11,71.5,11,50S28.5,11,50,11 M50,0C22.4,0,0,22.4,0,50
		s22.4,50,50,50s50-22.4,50-50S77.6,0,50,0L50,0z"/>
</g>
<g>
	<path class="st0" d="M41.8,58.6c0,2,0.3,3.7,1,5c1.2,2.4,3.4,3.6,6.5,3.6c1.9,0,3.6-0.7,5.1-2c1.4-1.3,2.2-3.2,2.2-5.7
		c0-3.3-1.3-5.5-4-6.6c-1.5-0.6-3.9-0.9-7.2-0.9v-7.1c3.2,0,5.4-0.4,6.7-0.9c2.2-1,3.3-2.9,3.3-5.9c0-1.9-0.6-3.5-1.7-4.7
		c-1.1-1.2-2.7-1.8-4.7-1.8c-2.3,0-4,0.7-5.1,2.2c-1.1,1.5-1.6,3.5-1.6,5.9H33c0.1-2.5,0.5-4.9,1.3-7.1c0.8-2,2.1-3.8,3.8-5.4
		c1.3-1.2,2.8-2.1,4.6-2.7s4-0.9,6.5-0.9c4.8,0,8.7,1.2,11.6,3.7s4.4,5.8,4.4,10c0,3-0.9,5.5-2.6,7.5c-1.1,1.3-2.3,2.1-3.5,2.6
		c0.9,0,2.2,0.8,3.9,2.3c2.5,2.3,3.8,5.5,3.8,9.6c0,4.3-1.5,8-4.4,11.2c-2.9,3.2-7.3,4.8-13.1,4.8c-7.1,0-12.1-2.3-14.8-7
		c-1.5-2.5-2.3-5.7-2.4-9.7H41.8z"/>
</g>
</svg>
