<?xml version="1.0" encoding="utf-8"?>
<!-- Generator: Adobe Illustrator 19.1.0, SVG Export Plug-In . SVG Version: 6.00 Build 0)  -->
<!DOCTYPE svg PUBLIC "-//W3C//DTD SVG 1.1//EN" "http://www.w3.org/Graphics/SVG/1.1/DTD/svg11.dtd">
<svg version="1.1" id="Layer_1" xmlns="http://www.w3.org/2000/svg" xmlns:xlink="http://www.w3.org/1999/xlink" x="0px" y="0px"
	 viewBox="0 0 100 100" style="enable-background:new 0 0 100 100;" xml:space="preserve">
<style type="text/css">
	.st0{fill:#1F75D0;}
</style>
<g>
	<path class="st0" d="M50,11c21.5,0,39,17.5,39,39S71.5,89,50,89S11,71.5,11,50S28.5,11,50,11 M50,0C22.4,0,0,22.4,0,50
		s22.4,50,50,50s50-22.4,50-50S77.6,0,50,0L50,0z"/>
</g>
<g>
	<path class="st0" d="M34.8,64.1c1.4-3.4,4.7-6.9,10-10.6c4.6-3.3,7.5-5.6,8.8-7c2.1-2.2,3.1-4.6,3.1-7.2c0-2.1-0.6-3.9-1.8-5.3
		c-1.2-1.4-2.9-2.1-5.1-2.1c-3,0-5.1,1.1-6.1,3.4c-0.6,1.3-1,3.4-1.1,6.2H33c0.2-4.3,0.9-7.7,2.3-10.4c2.6-5,7.3-7.5,14.1-7.5
		c5.3,0,9.6,1.5,12.7,4.4c3.1,2.9,4.7,6.8,4.7,11.7c0,3.7-1.1,7-3.3,9.9c-1.5,1.9-3.9,4.1-7.2,6.4l-4,2.8c-2.5,1.8-4.2,3-5.1,3.8
		c-0.9,0.8-1.7,1.7-2.3,2.7h21.9V74H32.5C32.6,70.4,33.3,67.1,34.8,64.1z"/>
</g>
</svg>
