<?xml version="1.0" encoding="utf-8"?>
<!-- Generator: Adobe Illustrator 21.0.0, SVG Export Plug-In . SVG Version: 6.00 Build 0)  -->
<!DOCTYPE svg PUBLIC "-//W3C//DTD SVG 1.1//EN" "http://www.w3.org/Graphics/SVG/1.1/DTD/svg11.dtd">
<svg version="1.1" id="Layer_1" xmlns="http://www.w3.org/2000/svg" xmlns:xlink="http://www.w3.org/1999/xlink" x="0px" y="0px"
	 viewBox="0 0 95 67.5" style="enable-background:new 0 0 95 67.5;" xml:space="preserve">
<style type="text/css">
	.st0{fill:#3674BA;}
	.st1{fill:none;stroke:#3573BA;stroke-width:3;}
	.st2{fill:#FDC110;}
	.st3{fill:none;stroke:#FFFFFF;stroke-width:3;}
	.st4{enable-background:new    ;}
</style>
<g>
	<polygon class="st0" points="1.5,1.5 1.5,65.3 50,57.8 87,63.8 87,1.5 	"/>
	<g>
		<polygon class="st1" points="1.5,1.5 1.5,65.3 50,57.8 87,63.8 87,1.5 		"/>
	</g>
	<polygon class="st2" points="6.5,0 6.5,57.8 50,50.8 93.5,57.8 93.5,0 	"/>
	<g>
		<polyline class="st3" points="6.5,0 6.5,59.3 50,52.3 93.5,59.3 93.5,0 		"/>
	</g>
	<g class="st4">
		<path class="st0" d="M34.4,8.9c0.6,0.2,1,0.5,1.3,1c0.3,0.4,0.5,0.8,0.6,1.3s0.2,0.9,0.2,1.3c0,1.1-0.2,1.9-0.6,2.7
			c-0.6,1-1.5,1.5-2.7,1.5h-3.4V8.8h3.4C33.6,8.8,34.1,8.8,34.4,8.9z M31.4,10.1v5.2h1.5c0.8,0,1.3-0.4,1.6-1.2
			c0.2-0.4,0.3-0.9,0.3-1.5c0-0.8-0.1-1.4-0.4-1.9s-0.8-0.6-1.5-0.6H31.4z"/>
	</g>
	<g class="st4">
		<path class="st0" d="M42.1,8.6H44l2.8,7.9H45l-0.5-1.6h-2.9l-0.5,1.6h-1.7L42.1,8.6z M41.9,13.6h2l-1-3.1L41.9,13.6z"/>
	</g>
	<g class="st4">
		<path class="st0" d="M51.4,16.6h-1.6V8.7h1.6V16.6z"/>
	</g>
	<g class="st4">
		<path class="st0" d="M55.2,8.6h1.7v6.5h4v1.4h-5.6V8.6H55.2L55.2,8.6z"/>
	</g>
	<g class="st4">
		<path class="st0" d="M67.4,8.6h1.9l-2.6,4.9v3H65v-3l-2.7-4.9h1.9l1.6,3.4L67.4,8.6z"/>
	</g>
	<g class="st4">
		<path class="st0" d="M23.8,24.9h3.9l-5.5,10.3v6.2h-3.4v-6.2l-5.7-10.3h4l3.4,7.2L23.8,24.9z"/>
	</g>
	<g class="st4">
		<path class="st0" d="M33.9,24.9h3.9l5.8,16.4h-3.7l-1.1-3.4h-6.1l-1.1,3.4H28L33.9,24.9z M33.7,35.1h4.2l-2.1-6.5L33.7,35.1z"/>
	</g>
	<g class="st4">
		<path class="st0" d="M47.6,24.9H51v13.5h8.2v3H47.6V24.9z"/>
	</g>
	<g class="st4">
		<path class="st0" d="M66.7,41.4h-3.4V24.9h3.4V41.4z"/>
	</g>
	<g class="st4">
		<path class="st0" d="M84.4,27.8h-8.7v3.5h8v2.9h-8v4.2h9.1v3H72.3V24.9h12v2.9H84.4L84.4,27.8z"/>
	</g>
</g>
</svg>
