<?xml version="1.0" encoding="utf-8"?>
<!-- Generator: Adobe Illustrator 23.0.2, SVG Export Plug-In . SVG Version: 6.00 Build 0)  -->
<svg version="1.1" id="Layer_1" xmlns="http://www.w3.org/2000/svg" xmlns:xlink="http://www.w3.org/1999/xlink" x="0px" y="0px"
	 viewBox="0 0 95 67.5" style="enable-background:new 0 0 95 67.5;" xml:space="preserve">
<style type="text/css">
	.st0{fill:#3674BA;}
	.st1{fill:#3573BA;}
	.st2{fill:#FDC110;}
	.st3{fill:#FFFFFF;}
</style>
<g>
	<g>
		<polygon class="st0" points="1.5,1.5 1.5,65.3 50,57.8 87,63.8 87,1.5 		"/>
	</g>
	<g>
		<g>
			<path class="st1" d="M0,67V0h88.5v65.6L50,59.3L0,67z M3,3v60.5l47-7.3L85.5,62V3H3z"/>
		</g>
	</g>
	<g>
		<polygon class="st2" points="6.5,0 6.5,57.8 50,50.8 93.5,57.8 93.5,0 		"/>
	</g>
	<g>
		<g>
			<polygon class="st3" points="95,61.1 50,53.8 5,61.1 5,0 8,0 8,57.5 50,50.8 50.2,50.8 92,57.5 92,0 95,0 			"/>
		</g>
	</g>
	<g>
		<path class="st1" d="M37.3,11.1v14.2h-4v-5.5h-5.5v5.5h-4V11.1h4v5.3h5.5v-5.3H37.3z"/>
		<path class="st1" d="M44.8,24.6c-1.2-0.6-2.1-1.5-2.8-2.6c-0.7-1.1-1-2.4-1-3.8c0-1.4,0.3-2.7,1-3.8c0.7-1.1,1.6-2,2.8-2.6
			c1.2-0.6,2.5-1,4-1c1.5,0,2.8,0.3,4,1c1.2,0.6,2.1,1.5,2.8,2.6c0.7,1.1,1,2.4,1,3.8c0,1.4-0.3,2.7-1,3.8c-0.7,1.1-1.6,2-2.8,2.6
			c-1.2,0.6-2.5,1-4,1C47.3,25.5,46,25.2,44.8,24.6z M50.8,21.7c0.6-0.3,1-0.8,1.4-1.4c0.3-0.6,0.5-1.3,0.5-2.1
			c0-0.8-0.2-1.5-0.5-2.1c-0.3-0.6-0.8-1.1-1.4-1.4c-0.6-0.3-1.2-0.5-1.9-0.5c-0.7,0-1.4,0.2-1.9,0.5c-0.6,0.3-1,0.8-1.4,1.4
			c-0.3,0.6-0.5,1.3-0.5,2.1c0,0.8,0.2,1.5,0.5,2.1c0.3,0.6,0.8,1.1,1.4,1.4c0.6,0.3,1.2,0.5,1.9,0.5C49.6,22.2,50.2,22,50.8,21.7z"
			/>
		<path class="st1" d="M63.5,24.6c-1.2-0.6-2.1-1.5-2.8-2.6c-0.7-1.1-1-2.4-1-3.8c0-1.4,0.3-2.7,1-3.8c0.7-1.1,1.6-2,2.8-2.6
			c1.2-0.6,2.5-1,4-1s2.8,0.3,4,1c1.2,0.6,2.1,1.5,2.8,2.6c0.7,1.1,1,2.4,1,3.8c0,1.4-0.3,2.7-1,3.8c-0.7,1.1-1.6,2-2.8,2.6
			c-1.2,0.6-2.5,1-4,1S64.7,25.2,63.5,24.6z M69.4,21.7c0.6-0.3,1-0.8,1.4-1.4c0.3-0.6,0.5-1.3,0.5-2.1c0-0.8-0.2-1.5-0.5-2.1
			c-0.3-0.6-0.8-1.1-1.4-1.4c-0.6-0.3-1.2-0.5-1.9-0.5s-1.4,0.2-1.9,0.5c-0.6,0.3-1,0.8-1.4,1.4c-0.3,0.6-0.5,1.3-0.5,2.1
			c0,0.8,0.2,1.5,0.5,2.1c0.3,0.6,0.8,1.1,1.4,1.4c0.6,0.3,1.2,0.5,1.9,0.5S68.9,22,69.4,21.7z"/>
	</g>
	<g>
		<path class="st1" d="M21.8,37l-1.7,1.8v2.8h-2V30.7h2v5.6l5.4-5.6h2.3l-4.6,4.9l4.8,6h-2.4L21.8,37z"/>
		<path class="st1" d="M40.2,30.7v10.9h-1.7l-6-7.4v7.4h-2V30.7h1.7l6,7.4v-7.4H40.2z"/>
		<path class="st1" d="M52.5,39.9v1.7h-8.2V30.7h7.9v1.7h-5.9v2.8h5.2v1.7h-5.2v3H52.5z"/>
		<path class="st1" d="M71.6,30.7L68,41.6h-2.1l-2.7-8l-2.7,8h-2.2l-3.6-10.9h2.1l2.7,8.3l2.8-8.3h1.9l2.7,8.3l2.8-8.3H71.6z"/>
		<path class="st1" d="M77,36.6c0.3-0.4,0.6-0.8,1.1-1.2c0.4-0.3,0.7-0.6,0.8-0.9c0.2-0.2,0.3-0.5,0.3-0.8c0-0.4-0.2-0.8-0.5-1.1
			c-0.4-0.3-0.8-0.4-1.4-0.4c-1.1,0-2,0.4-2.5,1.2l-1.5-1c0.4-0.6,1-1.1,1.7-1.4s1.5-0.5,2.5-0.5c1.2,0,2.1,0.3,2.8,0.8
			c0.7,0.5,1,1.2,1,2.1c0,0.4-0.1,0.8-0.2,1.1c-0.1,0.3-0.3,0.6-0.5,0.8c-0.2,0.2-0.5,0.5-0.8,0.8c-0.4,0.4-0.7,0.7-0.9,0.9
			c-0.2,0.3-0.3,0.6-0.3,1h-2C76.6,37.4,76.8,36.9,77,36.6z M76.7,41.3c-0.2-0.2-0.3-0.5-0.3-0.9s0.1-0.6,0.3-0.9
			c0.2-0.2,0.5-0.3,0.9-0.3c0.4,0,0.6,0.1,0.9,0.3c0.2,0.2,0.3,0.5,0.3,0.9s-0.1,0.6-0.3,0.9c-0.2,0.2-0.5,0.3-0.9,0.3
			C77.3,41.7,77,41.6,76.7,41.3z"/>
	</g>
</g>
</svg>
